<svg width="17" height="17" viewBox="0 0 17 17" fill="none" xmlns="http://www.w3.org/2000/svg">
<path fill-rule="evenodd" clip-rule="evenodd" d="M2.42857 0C1.08731 0 0 1.08731 0 2.42857V14.5714C0 15.9127 1.08731 17 2.42857 17H14.5714C15.9127 17 17 15.9127 17 14.5714V2.42857C17 1.08731 15.9127 0 14.5714 0H2.42857ZM13.3571 4.85714C13.3571 4.18651 12.8135 3.64286 12.1429 3.64286C11.4722 3.64286 10.9286 4.18651 10.9286 4.85714V12.1429C10.9286 12.8135 11.4722 13.3571 12.1429 13.3571C12.8135 13.3571 13.3571 12.8135 13.3571 12.1429V4.85714ZM9.71429 7.28571C9.71429 6.61508 9.17063 6.07143 8.5 6.07143C7.82937 6.07143 7.28571 6.61508 7.28571 7.28571V12.1429C7.28571 12.8135 7.82937 13.3571 8.5 13.3571C9.17063 13.3571 9.71429 12.8135 9.71429 12.1429V7.28571ZM6.07143 10.9286C6.07143 10.2579 5.52777 9.71429 4.85714 9.71429C4.18651 9.71429 3.64286 10.2579 3.64286 10.9286V12.1429C3.64286 12.8135 4.18651 13.3571 4.85714 13.3571C5.52777 13.3571 6.07143 12.8135 6.07143 12.1429V10.9286Z" fill="url(#paint0_linear_22_939)"/>
<defs>
<linearGradient id="paint0_linear_22_939" x1="-5.61753" y1="-5.61753" x2="19.0813" y2="14.4366" gradientUnits="userSpaceOnUse">
<stop stop-color="#4A2FEC"/>
<stop offset="1" stop-color="#2FECEC"/>
</linearGradient>
</defs>
</svg>
