<svg width="17" height="16" viewBox="0 0 17 16" fill="none" xmlns="http://www.w3.org/2000/svg">
<path d="M1.41675 7.5C1.41675 4.82888 1.41675 3.49296 2.24691 2.6635C3.07637 1.83333 4.41229 1.83333 7.08341 1.83333H9.91675C12.5879 1.83333 13.9238 1.83333 14.7532 2.6635C15.5834 3.49296 15.5834 4.82888 15.5834 7.5V8.91667C15.5834 11.5878 15.5834 12.9237 14.7532 13.7532C13.9238 14.5833 12.5879 14.5833 9.91675 14.5833H7.08341C4.41229 14.5833 3.07637 14.5833 2.24691 13.7532C1.41675 12.9237 1.41675 11.5878 1.41675 8.91667V7.5Z" stroke="url(#paint0_linear_22_941)" stroke-width="1.25"/>
<path d="M4.9585 1.83333V0.770833M12.0418 1.83333V0.770833M1.771 5.375H15.2293" stroke="white" stroke-width="1.25" stroke-linecap="round"/>
<path d="M12.75 11.0417C12.75 11.2295 12.6754 11.4097 12.5425 11.5425C12.4097 11.6754 12.2295 11.75 12.0417 11.75C11.8538 11.75 11.6736 11.6754 11.5408 11.5425C11.408 11.4097 11.3333 11.2295 11.3333 11.0417C11.3333 10.8538 11.408 10.6736 11.5408 10.5408C11.6736 10.408 11.8538 10.3333 12.0417 10.3333C12.2295 10.3333 12.4097 10.408 12.5425 10.5408C12.6754 10.6736 12.75 10.8538 12.75 11.0417ZM12.75 8.20833C12.75 8.39619 12.6754 8.57636 12.5425 8.7092C12.4097 8.84204 12.2295 8.91667 12.0417 8.91667C11.8538 8.91667 11.6736 8.84204 11.5408 8.7092C11.408 8.57636 11.3333 8.39619 11.3333 8.20833C11.3333 8.02047 11.408 7.8403 11.5408 7.70747C11.6736 7.57463 11.8538 7.5 12.0417 7.5C12.2295 7.5 12.4097 7.57463 12.5425 7.70747C12.6754 7.8403 12.75 8.02047 12.75 8.20833ZM9.20833 11.0417C9.20833 11.2295 9.13371 11.4097 9.00087 11.5425C8.86803 11.6754 8.68786 11.75 8.5 11.75C8.31214 11.75 8.13197 11.6754 7.99913 11.5425C7.86629 11.4097 7.79167 11.2295 7.79167 11.0417C7.79167 10.8538 7.86629 10.6736 7.99913 10.5408C8.13197 10.408 8.31214 10.3333 8.5 10.3333C8.68786 10.3333 8.86803 10.408 9.00087 10.5408C9.13371 10.6736 9.20833 10.8538 9.20833 11.0417ZM9.20833 8.20833C9.20833 8.39619 9.13371 8.57636 9.00087 8.7092C8.86803 8.84204 8.68786 8.91667 8.5 8.91667C8.31214 8.91667 8.13197 8.84204 7.99913 8.7092C7.86629 8.57636 7.79167 8.39619 7.79167 8.20833C7.79167 8.02047 7.86629 7.8403 7.99913 7.70747C8.13197 7.57463 8.31214 7.5 8.5 7.5C8.68786 7.5 8.86803 7.57463 9.00087 7.70747C9.13371 7.8403 9.20833 8.02047 9.20833 8.20833ZM5.66667 11.0417C5.66667 11.2295 5.59204 11.4097 5.4592 11.5425C5.32636 11.6754 5.14619 11.75 4.95833 11.75C4.77047 11.75 4.5903 11.6754 4.45747 11.5425C4.32463 11.4097 4.25 11.2295 4.25 11.0417C4.25 10.8538 4.32463 10.6736 4.45747 10.5408C4.5903 10.408 4.77047 10.3333 4.95833 10.3333C5.14619 10.3333 5.32636 10.408 5.4592 10.5408C5.59204 10.6736 5.66667 10.8538 5.66667 11.0417ZM5.66667 8.20833C5.66667 8.39619 5.59204 8.57636 5.4592 8.7092C5.32636 8.84204 5.14619 8.91667 4.95833 8.91667C4.77047 8.91667 4.5903 8.84204 4.45747 8.7092C4.32463 8.57636 4.25 8.39619 4.25 8.20833C4.25 8.02047 4.32463 7.8403 4.45747 7.70747C4.5903 7.57463 4.77047 7.5 4.95833 7.5C5.14619 7.5 5.32636 7.57463 5.4592 7.70747C5.59204 7.8403 5.66667 8.02047 5.66667 8.20833Z" fill="white"/>
<path d="M12.75 11.0417C12.75 11.2295 12.6754 11.4097 12.5425 11.5425C12.4097 11.6754 12.2295 11.75 12.0417 11.75C11.8538 11.75 11.6736 11.6754 11.5408 11.5425C11.408 11.4097 11.3333 11.2295 11.3333 11.0417C11.3333 10.8538 11.408 10.6736 11.5408 10.5408C11.6736 10.408 11.8538 10.3333 12.0417 10.3333C12.2295 10.3333 12.4097 10.408 12.5425 10.5408C12.6754 10.6736 12.75 10.8538 12.75 11.0417ZM12.75 8.20833C12.75 8.39619 12.6754 8.57636 12.5425 8.7092C12.4097 8.84204 12.2295 8.91667 12.0417 8.91667C11.8538 8.91667 11.6736 8.84204 11.5408 8.7092C11.408 8.57636 11.3333 8.39619 11.3333 8.20833C11.3333 8.02047 11.408 7.8403 11.5408 7.70747C11.6736 7.57463 11.8538 7.5 12.0417 7.5C12.2295 7.5 12.4097 7.57463 12.5425 7.70747C12.6754 7.8403 12.75 8.02047 12.75 8.20833ZM9.20833 11.0417C9.20833 11.2295 9.13371 11.4097 9.00087 11.5425C8.86803 11.6754 8.68786 11.75 8.5 11.75C8.31214 11.75 8.13197 11.6754 7.99913 11.5425C7.86629 11.4097 7.79167 11.2295 7.79167 11.0417C7.79167 10.8538 7.86629 10.6736 7.99913 10.5408C8.13197 10.408 8.31214 10.3333 8.5 10.3333C8.68786 10.3333 8.86803 10.408 9.00087 10.5408C9.13371 10.6736 9.20833 10.8538 9.20833 11.0417ZM9.20833 8.20833C9.20833 8.39619 9.13371 8.57636 9.00087 8.7092C8.86803 8.84204 8.68786 8.91667 8.5 8.91667C8.31214 8.91667 8.13197 8.84204 7.99913 8.7092C7.86629 8.57636 7.79167 8.39619 7.79167 8.20833C7.79167 8.02047 7.86629 7.8403 7.99913 7.70747C8.13197 7.57463 8.31214 7.5 8.5 7.5C8.68786 7.5 8.86803 7.57463 9.00087 7.70747C9.13371 7.8403 9.20833 8.02047 9.20833 8.20833ZM5.66667 11.0417C5.66667 11.2295 5.59204 11.4097 5.4592 11.5425C5.32636 11.6754 5.14619 11.75 4.95833 11.75C4.77047 11.75 4.5903 11.6754 4.45747 11.5425C4.32463 11.4097 4.25 11.2295 4.25 11.0417C4.25 10.8538 4.32463 10.6736 4.45747 10.5408C4.5903 10.408 4.77047 10.3333 4.95833 10.3333C5.14619 10.3333 5.32636 10.408 5.4592 10.5408C5.59204 10.6736 5.66667 10.8538 5.66667 11.0417ZM5.66667 8.20833C5.66667 8.39619 5.59204 8.57636 5.4592 8.7092C5.32636 8.84204 5.14619 8.91667 4.95833 8.91667C4.77047 8.91667 4.5903 8.84204 4.45747 8.7092C4.32463 8.57636 4.25 8.39619 4.25 8.20833C4.25 8.02047 4.32463 7.8403 4.45747 7.70747C4.5903 7.57463 4.77047 7.5 4.95833 7.5C5.14619 7.5 5.32636 7.57463 5.4592 7.70747C5.59204 7.8403 5.66667 8.02047 5.66667 8.20833Z" fill="url(#paint1_linear_22_941)"/>
<defs>
<linearGradient id="paint0_linear_22_941" x1="-19.5" y1="-15.5" x2="22" y2="21" gradientUnits="userSpaceOnUse">
<stop stop-color="#EC9439"/>
<stop offset="1" stop-color="#ECBF33"/>
</linearGradient>
<linearGradient id="paint1_linear_22_941" x1="1.44124" y1="6.09562" x2="7.07519" y2="15.2446" gradientUnits="userSpaceOnUse">
<stop stop-color="#EC2F46"/>
<stop offset="1" stop-color="#ECD92F"/>
</linearGradient>
</defs>
</svg>
