<svg width="17" height="17" viewBox="0 0 17 17" fill="none" xmlns="http://www.w3.org/2000/svg">
<path d="M5.21778 0.000636518C4.53537 -0.00711075 3.85821 0.121069 3.22551 0.377754C2.59281 0.634438 2.01714 1.01453 1.53185 1.49601C1.04656 1.97749 0.661287 2.55079 0.39834 3.18272C0.135394 3.81465 0 4.49265 0 5.17745C0 5.86225 0.135394 6.54025 0.39834 7.17218C0.661287 7.80411 1.04656 8.37741 1.53185 8.85889C2.01714 9.34037 2.59281 9.72046 3.22551 9.97715C3.85821 10.2338 4.53537 10.362 5.21778 10.3543C6.58614 10.3543 7.89846 9.80882 8.86603 8.83791C9.83361 7.86701 10.3772 6.55018 10.3772 5.17712C10.3772 3.80405 9.83361 2.48723 8.86603 1.51632C7.89846 0.545421 6.58614 0.000636547 5.21778 0.000636518ZM3.56687 1.80101C3.792 1.80057 4.015 1.84475 4.22307 1.93102C4.43114 2.01729 4.62018 2.14394 4.77934 2.30371C4.9385 2.46348 5.06465 2.65322 5.15054 2.86204C5.23643 3.07085 5.28038 3.29464 5.27985 3.52054C5.28046 3.74644 5.23657 3.97023 5.1507 4.17904C5.06483 4.38786 4.93868 4.57759 4.77949 4.73733C4.62031 4.89706 4.43123 5.02365 4.22312 5.10981C4.01502 5.19598 3.792 5.24002 3.56687 5.23941C3.34175 5.24002 3.11873 5.19598 2.91062 5.10981C2.70252 5.02365 2.51344 4.89706 2.35425 4.73733C2.19507 4.57759 2.06891 4.38786 1.98305 4.17904C1.89718 3.97023 1.85328 3.74644 1.85389 3.52054C1.85346 3.29469 1.89747 3.07098 1.9834 2.86224C2.06933 2.6535 2.19549 2.46384 2.35464 2.30414C2.5138 2.14444 2.70281 2.01785 2.91083 1.93162C3.11886 1.8454 3.3418 1.80057 3.56687 1.80101ZM10.8929 7.5785C10.7117 8.0035 10.4831 8.40652 10.2114 8.77985L15.3709 13.9563C15.4793 14.0667 15.5402 14.2155 15.5402 14.3705C15.5402 14.5255 15.4793 14.6743 15.3709 14.7846C15.2607 14.8932 15.1125 14.954 14.9581 14.954C14.8037 14.954 14.6555 14.8932 14.5454 14.7846L9.44806 9.64922C8.80434 10.2611 8.03738 10.7275 7.19887 11.0169V11.928C7.19887 12.2196 7.44386 12.4661 7.73574 12.4661H9.17995V13.9159C9.17995 14.2075 9.42495 14.454 9.71683 14.454H11.161V15.9038C11.161 16.1954 11.4067 16.4419 11.6979 16.4419H13.1626L13.5344 16.8149C13.7602 17.0409 16.0226 17.1542 16.5886 16.587C17.1545 16.0184 17.0402 13.7483 16.8151 13.5223L10.8929 7.5785Z" fill="white"/>
<path d="M5.21778 0.000636518C4.53537 -0.00711075 3.85821 0.121069 3.22551 0.377754C2.59281 0.634438 2.01714 1.01453 1.53185 1.49601C1.04656 1.97749 0.661287 2.55079 0.39834 3.18272C0.135394 3.81465 0 4.49265 0 5.17745C0 5.86225 0.135394 6.54025 0.39834 7.17218C0.661287 7.80411 1.04656 8.37741 1.53185 8.85889C2.01714 9.34037 2.59281 9.72046 3.22551 9.97715C3.85821 10.2338 4.53537 10.362 5.21778 10.3543C6.58614 10.3543 7.89846 9.80882 8.86603 8.83791C9.83361 7.86701 10.3772 6.55018 10.3772 5.17712C10.3772 3.80405 9.83361 2.48723 8.86603 1.51632C7.89846 0.545421 6.58614 0.000636547 5.21778 0.000636518ZM3.56687 1.80101C3.792 1.80057 4.015 1.84475 4.22307 1.93102C4.43114 2.01729 4.62018 2.14394 4.77934 2.30371C4.9385 2.46348 5.06465 2.65322 5.15054 2.86204C5.23643 3.07085 5.28038 3.29464 5.27985 3.52054C5.28046 3.74644 5.23657 3.97023 5.1507 4.17904C5.06483 4.38786 4.93868 4.57759 4.77949 4.73733C4.62031 4.89706 4.43123 5.02365 4.22312 5.10981C4.01502 5.19598 3.792 5.24002 3.56687 5.23941C3.34175 5.24002 3.11873 5.19598 2.91062 5.10981C2.70252 5.02365 2.51344 4.89706 2.35425 4.73733C2.19507 4.57759 2.06891 4.38786 1.98305 4.17904C1.89718 3.97023 1.85328 3.74644 1.85389 3.52054C1.85346 3.29469 1.89747 3.07098 1.9834 2.86224C2.06933 2.6535 2.19549 2.46384 2.35464 2.30414C2.5138 2.14444 2.70281 2.01785 2.91083 1.93162C3.11886 1.8454 3.3418 1.80057 3.56687 1.80101ZM10.8929 7.5785C10.7117 8.0035 10.4831 8.40652 10.2114 8.77985L15.3709 13.9563C15.4793 14.0667 15.5402 14.2155 15.5402 14.3705C15.5402 14.5255 15.4793 14.6743 15.3709 14.7846C15.2607 14.8932 15.1125 14.954 14.9581 14.954C14.8037 14.954 14.6555 14.8932 14.5454 14.7846L9.44806 9.64922C8.80434 10.2611 8.03738 10.7275 7.19887 11.0169V11.928C7.19887 12.2196 7.44386 12.4661 7.73574 12.4661H9.17995V13.9159C9.17995 14.2075 9.42495 14.454 9.71683 14.454H11.161V15.9038C11.161 16.1954 11.4067 16.4419 11.6979 16.4419H13.1626L13.5344 16.8149C13.7602 17.0409 16.0226 17.1542 16.5886 16.587C17.1545 16.0184 17.0402 13.7483 16.8151 13.5223L10.8929 7.5785Z" fill="url(#paint0_linear_22_948)"/>
<path d="M5.21778 0.000636518C4.53537 -0.00711075 3.85821 0.121069 3.22551 0.377754C2.59281 0.634438 2.01714 1.01453 1.53185 1.49601C1.04656 1.97749 0.661287 2.55079 0.39834 3.18272C0.135394 3.81465 0 4.49265 0 5.17745C0 5.86225 0.135394 6.54025 0.39834 7.17218C0.661287 7.80411 1.04656 8.37741 1.53185 8.85889C2.01714 9.34037 2.59281 9.72046 3.22551 9.97715C3.85821 10.2338 4.53537 10.362 5.21778 10.3543C6.58614 10.3543 7.89846 9.80882 8.86603 8.83791C9.83361 7.86701 10.3772 6.55018 10.3772 5.17712C10.3772 3.80405 9.83361 2.48723 8.86603 1.51632C7.89846 0.545421 6.58614 0.000636547 5.21778 0.000636518ZM3.56687 1.80101C3.792 1.80057 4.015 1.84475 4.22307 1.93102C4.43114 2.01729 4.62018 2.14394 4.77934 2.30371C4.9385 2.46348 5.06465 2.65322 5.15054 2.86204C5.23643 3.07085 5.28038 3.29464 5.27985 3.52054C5.28046 3.74644 5.23657 3.97023 5.1507 4.17904C5.06483 4.38786 4.93868 4.57759 4.77949 4.73733C4.62031 4.89706 4.43123 5.02365 4.22312 5.10981C4.01502 5.19598 3.792 5.24002 3.56687 5.23941C3.34175 5.24002 3.11873 5.19598 2.91062 5.10981C2.70252 5.02365 2.51344 4.89706 2.35425 4.73733C2.19507 4.57759 2.06891 4.38786 1.98305 4.17904C1.89718 3.97023 1.85328 3.74644 1.85389 3.52054C1.85346 3.29469 1.89747 3.07098 1.9834 2.86224C2.06933 2.6535 2.19549 2.46384 2.35464 2.30414C2.5138 2.14444 2.70281 2.01785 2.91083 1.93162C3.11886 1.8454 3.3418 1.80057 3.56687 1.80101ZM10.8929 7.5785C10.7117 8.0035 10.4831 8.40652 10.2114 8.77985L15.3709 13.9563C15.4793 14.0667 15.5402 14.2155 15.5402 14.3705C15.5402 14.5255 15.4793 14.6743 15.3709 14.7846C15.2607 14.8932 15.1125 14.954 14.9581 14.954C14.8037 14.954 14.6555 14.8932 14.5454 14.7846L9.44806 9.64922C8.80434 10.2611 8.03738 10.7275 7.19887 11.0169V11.928C7.19887 12.2196 7.44386 12.4661 7.73574 12.4661H9.17995V13.9159C9.17995 14.2075 9.42495 14.454 9.71683 14.454H11.161V15.9038C11.161 16.1954 11.4067 16.4419 11.6979 16.4419H13.1626L13.5344 16.8149C13.7602 17.0409 16.0226 17.1542 16.5886 16.587C17.1545 16.0184 17.0402 13.7483 16.8151 13.5223L10.8929 7.5785Z" fill="url(#paint1_linear_22_948)"/>
<defs>
<linearGradient id="paint0_linear_22_948" x1="-5.61752" y1="-5.61753" x2="19.0813" y2="14.4366" gradientUnits="userSpaceOnUse">
<stop stop-color="#4A2FEC"/>
<stop offset="1" stop-color="#2FECEC"/>
</linearGradient>
<linearGradient id="paint1_linear_22_948" x1="-5.61752" y1="-5.61753" x2="19.0813" y2="14.4366" gradientUnits="userSpaceOnUse">
<stop stop-color="#EC2F46"/>
<stop offset="1" stop-color="#ECD92F"/>
</linearGradient>
</defs>
</svg>
