<svg width="13" height="13" viewBox="0 0 13 13" fill="none" xmlns="http://www.w3.org/2000/svg">
<path d="M1.54167 12.875C1.15208 12.875 0.818694 12.7364 0.5415 12.4592C0.264306 12.182 0.125472 11.8484 0.125 11.4583V1.54167C0.125 1.15208 0.263833 0.818694 0.5415 0.5415C0.819167 0.264306 1.15256 0.125472 1.54167 0.125H6.5V1.54167H1.54167V11.4583H6.5V12.875H1.54167ZM9.33333 10.0417L8.35938 9.01458L10.1656 7.20833H4.375V5.79167H10.1656L8.35938 3.98542L9.33333 2.95833L12.875 6.5L9.33333 10.0417Z" fill="white"/>
<path d="M1.54167 12.875C1.15208 12.875 0.818694 12.7364 0.5415 12.4592C0.264306 12.182 0.125472 11.8484 0.125 11.4583V1.54167C0.125 1.15208 0.263833 0.818694 0.5415 0.5415C0.819167 0.264306 1.15256 0.125472 1.54167 0.125H6.5V1.54167H1.54167V11.4583H6.5V12.875H1.54167ZM9.33333 10.0417L8.35938 9.01458L10.1656 7.20833H4.375V5.79167H10.1656L8.35938 3.98542L9.33333 2.95833L12.875 6.5L9.33333 10.0417Z" fill="url(#paint0_linear_22_950)"/>
<defs>
<linearGradient id="paint0_linear_22_950" x1="-4.08814" y1="-4.08814" x2="14.436" y2="10.9525" gradientUnits="userSpaceOnUse">
<stop stop-color="#4A2FEC"/>
<stop offset="1" stop-color="#2FECEC"/>
</linearGradient>
</defs>
</svg>
