<svg width="19" height="19" viewBox="0 0 19 19" fill="none" xmlns="http://www.w3.org/2000/svg">
<path d="M11.3322 0.358307H6.20041C5.55084 0.358307 4.91687 0.598107 4.41486 1.08225L1.25383 4.21102C0.772103 4.69275 0.489746 5.33397 0.489746 6.02883V14.3134C0.489746 15.729 1.63981 16.8792 3.05543 16.8792H8.77431C8.37213 16.0991 8.15488 15.2143 8.15488 14.2813C8.15488 11.1042 10.7287 8.52246 13.8978 8.50618L13.898 2.92418C13.898 1.50856 12.7479 0.358346 11.3323 0.358346L11.3322 0.358307ZM6.19227 11.5545H4.49517C4.0527 11.5545 3.6908 11.1926 3.6908 10.7501C3.6908 10.2997 4.0527 9.94573 4.49517 9.94573H6.19227C6.64262 9.94573 6.99664 10.2996 6.99664 10.7501C6.99664 11.1926 6.64262 11.5545 6.19227 11.5545ZM9.89211 7.95112H4.4951C4.05262 7.95112 3.69072 7.58922 3.69072 7.14674C3.69072 6.69639 4.05262 6.34237 4.4951 6.34237H9.89211C10.3346 6.34237 10.6965 6.69624 10.6965 7.14674C10.6965 7.58922 10.3346 7.95112 9.89211 7.95112Z" fill="url(#paint0_linear_22_802)"/>
<path d="M13.9304 9.71282C11.4049 9.71282 9.36214 11.7558 9.36214 14.2815C9.36199 16.807 11.4051 18.8583 13.9304 18.8583C16.4558 18.8583 18.4987 16.8073 18.4987 14.2815C18.4987 11.7559 16.4558 9.71282 13.9304 9.71282ZM15.5471 15.906C15.227 16.2262 14.7138 16.2067 14.4131 15.906L13.3593 14.8523C13.2065 14.6994 13.1261 14.4984 13.1261 14.2811V12.2222C13.1261 11.7718 13.488 11.4178 13.9304 11.4178C14.3729 11.4178 14.7348 11.7717 14.7348 12.2222V13.9515L15.5472 14.7639C15.8608 15.0775 15.8608 15.5924 15.5471 15.9059L15.5471 15.906Z" fill="url(#paint1_linear_22_802)"/>
<defs>
<linearGradient id="paint0_linear_22_802" x1="-2.00015" y1="0.358307" x2="18.7211" y2="20.8305" gradientUnits="userSpaceOnUse">
<stop stop-color="#4A2FEC"/>
<stop offset="1" stop-color="#2FECEC"/>
</linearGradient>
<linearGradient id="paint1_linear_22_802" x1="-2.00015" y1="0.358307" x2="18.7211" y2="20.8305" gradientUnits="userSpaceOnUse">
<stop stop-color="#4A2FEC"/>
<stop offset="1" stop-color="#2FECEC"/>
</linearGradient>
</defs>
</svg>
