<svg width="23" height="12" viewBox="0 0 23 12" fill="none" xmlns="http://www.w3.org/2000/svg">
<path d="M22.16 3.68C22.32 3.6 22.4 3.44 22.4 3.28V0.4C22.4 0.16 22.24 0 22 0H7.04C7.12 0.08 7.2 0.24 7.2 0.4V1.6C7.2 2.08 6.88 2.4 6.4 2.4C5.92 2.4 5.6 2.08 5.6 1.6V0.4C5.6 0.24 5.68 0.08 5.76 0H0.4C0.16 0 0 0.16 0 0.4V3.36C0 3.52 0.08 3.68 0.24 3.76C1.52 4.4 2.08 5.92 1.44 7.2C1.2 7.68 0.8 8.08 0.24 8.4C0.08 8.4 0 8.56 0 8.72V11.6C0 11.84 0.16 12 0.4 12H5.76C5.68 11.92 5.6 11.76 5.6 11.6V10.4C5.6 9.92 5.92 9.6 6.4 9.6C6.88 9.6 7.2 9.92 7.2 10.4V11.6C7.2 11.76 7.12 11.92 7.04 12H22C22.24 12 22.4 11.84 22.4 11.6V8.72C22.4 8.56 22.32 8.4 22.16 8.32C20.88 7.68 20.32 6.16 20.96 4.88C21.2 4.32 21.6 3.92 22.16 3.68ZM7.2 7.44C7.2 7.92 6.88 8.24 6.4 8.24C5.92 8.24 5.6 7.92 5.6 7.44V4.48C5.6 4 5.92 3.68 6.4 3.68C6.88 3.68 7.2 4 7.2 4.48V7.44ZM16.24 5.52L14.96 6.4L15.44 7.84C15.52 8 15.44 8.16 15.28 8.32C15.28 8.4 15.2 8.4 15.12 8.4C15.04 8.4 14.96 8.4 14.88 8.32L13.6 7.44L12.32 8.32C12.16 8.4 12 8.4 11.84 8.32C11.68 8.24 11.68 8 11.68 7.84L12.16 6.4L10.88 5.52C10.72 5.44 10.64 5.2 10.72 5.04C10.8 4.88 10.96 4.72 11.12 4.72H12.64L13.12 3.28C13.2 3.04 13.44 2.96 13.68 3.04C13.84 3.12 13.92 3.2 13.92 3.28L14.4 4.72H16C16.16 4.72 16.32 4.8 16.4 5.04C16.4 5.2 16.4 5.44 16.24 5.52Z" fill="url(#paint0_linear_22_945)"/>
<defs>
<linearGradient id="paint0_linear_22_945" x1="-3.21714" y1="-9.24884" x2="20.8493" y2="17.9547" gradientUnits="userSpaceOnUse">
<stop offset="0.046875" stop-color="#D90D50"/>
<stop offset="1" stop-color="#FDA793"/>
</linearGradient>
</defs>
</svg>
