<svg width="17" height="17" viewBox="0 0 17 17" fill="none" xmlns="http://www.w3.org/2000/svg">
<path d="M10.4828 0.665654C10.073 0.255858 9.35895 0.255858 8.94912 0.665654L6.26465 3.35516H13.1699L10.4828 0.665654Z" fill="url(#paint0_linear_22_805)"/>
<path fill-rule="evenodd" clip-rule="evenodd" d="M15.9935 7.98221H13.1438C11.9334 7.98221 10.9504 8.9652 10.9504 10.1756C10.9504 10.7647 11.1778 11.3154 11.5908 11.7285C12.0039 12.1416 12.5546 12.3721 13.1438 12.3721H15.9935C16.1697 12.3721 16.3138 12.228 16.3138 12.0519V8.30235C16.3138 8.12631 16.1697 7.98221 15.9935 7.98221ZM13.2463 11.2323C12.6635 11.2323 12.1895 10.7584 12.1895 10.1756C12.1895 9.59604 12.6635 9.12213 13.2463 9.12213C13.829 9.12213 14.2996 9.59604 14.2996 10.1756C14.2997 10.7584 13.829 11.2323 13.2463 11.2323Z" fill="url(#paint1_linear_22_805)"/>
<path d="M1.77657 3.99558H15.212C15.8204 3.99558 16.3134 4.49185 16.3135 5.09685V7.40039C16.2129 7.36452 16.1061 7.34143 15.9934 7.34143H13.1437C11.5813 7.34143 10.31 8.61271 10.31 10.1753C10.31 10.9348 10.604 11.6472 11.1379 12.1809C11.6739 12.7169 12.3862 13.0121 13.1437 13.0121H15.9934C16.1062 13.0121 16.2129 12.989 16.3135 12.9531V15.2568C16.3135 15.8652 15.8203 16.3583 15.212 16.3583H1.77657C1.17133 16.3583 0.675049 15.8651 0.675049 15.2568V5.09697C0.675049 4.49185 1.17145 3.99558 1.77657 3.99558Z" fill="url(#paint2_linear_22_805)"/>
<defs>
<linearGradient id="paint0_linear_22_805" x1="-3.15404" y1="0.358307" x2="12.7182" y2="21.8684" gradientUnits="userSpaceOnUse">
<stop offset="0.046875" stop-color="#005F91"/>
<stop offset="1" stop-color="#00C55A"/>
</linearGradient>
<linearGradient id="paint1_linear_22_805" x1="-3.15404" y1="0.358307" x2="12.7182" y2="21.8684" gradientUnits="userSpaceOnUse">
<stop offset="0.046875" stop-color="#005F91"/>
<stop offset="1" stop-color="#00C55A"/>
</linearGradient>
<linearGradient id="paint2_linear_22_805" x1="-3.15404" y1="0.358307" x2="12.7182" y2="21.8684" gradientUnits="userSpaceOnUse">
<stop offset="0.046875" stop-color="#005F91"/>
<stop offset="1" stop-color="#00C55A"/>
</linearGradient>
</defs>
</svg>
