<svg width="21" height="16" viewBox="0 0 21 16" fill="none" xmlns="http://www.w3.org/2000/svg">
<path fill-rule="evenodd" clip-rule="evenodd" d="M0.494415 11.4283C0.494415 12.2567 1.16599 12.9283 1.99442 12.9283H9.56828L9.25148 14.5376H5.86456L4.93863 15.9457H16.0497L15.1238 14.5376H11.7472L11.4302 12.9283H18.9944C19.8228 12.9283 20.4944 12.2567 20.4944 11.4283V1.5542C20.4944 0.725773 19.8228 0.0541992 18.9944 0.0541992H1.99442C1.16599 0.0541992 0.494415 0.725772 0.494415 1.5542V11.4283ZM6.20242 8.4813C6.20242 8.55496 6.24142 8.5918 6.31942 8.5918H7.10592C7.16658 8.5918 7.20992 8.58313 7.23592 8.5658C7.26625 8.54413 7.29225 8.5073 7.31392 8.4553L7.60642 7.6883H9.18591L9.48492 8.4553C9.50658 8.5073 9.53042 8.54413 9.55642 8.5658C9.58675 8.58313 9.63225 8.5918 9.69291 8.5918H10.4794C10.5574 8.5918 10.5964 8.55496 10.5964 8.4813C10.5964 8.45096 10.5899 8.4163 10.5769 8.3773L8.89342 4.3668C8.86308 4.29313 8.83058 4.2433 8.79592 4.2173C8.76125 4.18696 8.70925 4.1718 8.63992 4.1718H8.16542C8.09608 4.1718 8.04192 4.18696 8.00292 4.2173C7.96825 4.2433 7.93575 4.29313 7.90542 4.3668L6.22192 8.3773C6.20892 8.4163 6.20242 8.45096 6.20242 8.4813ZM8.39942 5.5368L8.93892 6.9408H7.85342L8.39942 5.5368ZM10.8424 7.0188C10.8424 8.13246 11.4751 8.6893 12.7404 8.6893C13.0567 8.6893 13.3579 8.64813 13.6439 8.5658C13.9299 8.48346 14.1617 8.3773 14.3394 8.2473V4.4578C14.3394 4.36246 14.3156 4.29096 14.2679 4.2433C14.2246 4.19563 14.1509 4.1718 14.0469 4.1718H13.5789C13.4706 4.1718 13.3947 4.19563 13.3514 4.2433C13.3081 4.28663 13.2864 4.35813 13.2864 4.4578V5.6148C13.1954 5.5368 13.0741 5.4783 12.9224 5.4393C12.7751 5.39596 12.6082 5.3743 12.4219 5.3743C12.0926 5.3743 11.8087 5.44363 11.5704 5.5823C11.3321 5.71663 11.1501 5.90946 11.0244 6.1608C10.9031 6.4078 10.8424 6.6938 10.8424 7.0188ZM13.2864 7.8378C13.1521 7.91146 12.9787 7.9483 12.7664 7.9483C12.4804 7.9483 12.2659 7.87896 12.1229 7.7403C11.9799 7.5973 11.9084 7.36113 11.9084 7.0318C11.9084 6.7458 11.9691 6.52263 12.0904 6.3623C12.2161 6.19763 12.4067 6.1153 12.6624 6.1153C12.8531 6.1153 13.0047 6.1608 13.1174 6.2518C13.2301 6.33846 13.2864 6.47063 13.2864 6.6483V7.8378Z" fill="url(#paint0_linear_1_608)"/>
<defs>
<linearGradient id="paint0_linear_1_608" x1="-2.22161" y1="-1.92508" x2="21.9659" y2="26.2946" gradientUnits="userSpaceOnUse">
<stop stop-color="#7D17E4"/>
<stop offset="1" stop-color="#FFB6D8"/>
</linearGradient>
</defs>
</svg>
