<svg width="19" height="19" viewBox="0 0 19 19" fill="none" xmlns="http://www.w3.org/2000/svg">
<path d="M11.3323 0.358276H6.20053C5.55097 0.358276 4.91699 0.598076 4.41498 1.08222L1.25395 4.21099C0.772225 4.69272 0.489868 5.33394 0.489868 6.0288V14.3134C0.489868 15.729 1.63993 16.8792 3.05555 16.8792H8.77444C8.37225 16.0991 8.155 15.2142 8.155 14.2813C8.155 11.1042 10.7289 8.52243 13.8979 8.50614L13.8981 2.92415C13.8981 1.50853 12.748 0.358315 11.3324 0.358315L11.3323 0.358276ZM6.19239 11.5544H4.4953C4.05282 11.5544 3.69092 11.1925 3.69092 10.7501C3.69092 10.2997 4.05282 9.9457 4.4953 9.9457H6.19239C6.64274 9.9457 6.99676 10.2996 6.99676 10.7501C6.99676 11.1925 6.64274 11.5544 6.19239 11.5544ZM9.89223 7.95109H4.49522C4.05274 7.95109 3.69085 7.58919 3.69085 7.14671C3.69085 6.69636 4.05274 6.34234 4.49522 6.34234H9.89223C10.3347 6.34234 10.6966 6.69621 10.6966 7.14671C10.6966 7.58919 10.3347 7.95109 9.89223 7.95109Z" fill="url(#paint0_linear_1_601)"/>
<path d="M13.9305 9.71279C11.405 9.71279 9.36226 11.7557 9.36226 14.2815C9.36211 16.807 11.4052 18.8583 13.9305 18.8583C16.4559 18.8583 18.4988 16.8073 18.4988 14.2815C18.4988 11.7559 16.4559 9.71279 13.9305 9.71279ZM15.5472 15.906C15.2271 16.2262 14.7139 16.2066 14.4132 15.906L13.3595 14.8522C13.2066 14.6994 13.1262 14.4984 13.1262 14.2811V12.2221C13.1262 11.7718 13.4881 11.4178 13.9306 11.4178C14.373 11.4178 14.7349 11.7716 14.7349 12.2221V13.9515L15.5473 14.7639C15.8609 15.0775 15.8609 15.5923 15.5472 15.9059L15.5472 15.906Z" fill="url(#paint1_linear_1_601)"/>
<defs>
<linearGradient id="paint0_linear_1_601" x1="-2.00003" y1="0.358276" x2="18.7213" y2="20.8305" gradientUnits="userSpaceOnUse">
<stop stop-color="#4A2FEC"/>
<stop offset="1" stop-color="#2FECEC"/>
</linearGradient>
<linearGradient id="paint1_linear_1_601" x1="-2.00003" y1="0.358276" x2="18.7213" y2="20.8305" gradientUnits="userSpaceOnUse">
<stop stop-color="#4A2FEC"/>
<stop offset="1" stop-color="#2FECEC"/>
</linearGradient>
</defs>
</svg>
