<svg width="23" height="13" viewBox="0 0 23 13" fill="none" xmlns="http://www.w3.org/2000/svg">
<path d="M22.4543 4.18C22.6143 4.1 22.6943 3.94 22.6943 3.78V0.9C22.6943 0.66 22.5343 0.5 22.2943 0.5H7.33431C7.41431 0.58 7.49431 0.74 7.49431 0.9V2.1C7.49431 2.58 7.17431 2.9 6.69431 2.9C6.21431 2.9 5.89431 2.58 5.89431 2.1V0.9C5.89431 0.74 5.97431 0.58 6.05431 0.5H0.694311C0.454312 0.5 0.294312 0.66 0.294312 0.9V3.86C0.294312 4.02 0.374312 4.18 0.534312 4.26C1.81431 4.9 2.37431 6.42 1.73431 7.7C1.49431 8.18 1.09431 8.58 0.534312 8.9C0.374312 8.9 0.294312 9.06 0.294312 9.22V12.1C0.294312 12.34 0.454312 12.5 0.694311 12.5H6.05431C5.97431 12.42 5.89431 12.26 5.89431 12.1V10.9C5.89431 10.42 6.21431 10.1 6.69431 10.1C7.17431 10.1 7.49431 10.42 7.49431 10.9V12.1C7.49431 12.26 7.41431 12.42 7.33431 12.5H22.2943C22.5343 12.5 22.6943 12.34 22.6943 12.1V9.22C22.6943 9.06 22.6143 8.9 22.4543 8.82C21.1743 8.18 20.6143 6.66 21.2543 5.38C21.4943 4.82 21.8943 4.42 22.4543 4.18ZM7.49431 7.94C7.49431 8.42 7.17431 8.74 6.69431 8.74C6.21431 8.74 5.89431 8.42 5.89431 7.94V4.98C5.89431 4.5 6.21431 4.18 6.69431 4.18C7.17431 4.18 7.49431 4.5 7.49431 4.98V7.94ZM16.5343 6.02L15.2543 6.9L15.7343 8.34C15.8143 8.5 15.7343 8.66 15.5743 8.82C15.5743 8.9 15.4943 8.9 15.4143 8.9C15.3343 8.9 15.2543 8.9 15.1743 8.82L13.8943 7.94L12.6143 8.82C12.4543 8.9 12.2943 8.9 12.1343 8.82C11.9743 8.74 11.9743 8.5 11.9743 8.34L12.4543 6.9L11.1743 6.02C11.0143 5.94 10.9343 5.7 11.0143 5.54C11.0943 5.38 11.2543 5.22 11.4143 5.22H12.9343L13.4143 3.78C13.4943 3.54 13.7343 3.46 13.9743 3.54C14.1343 3.62 14.2143 3.7 14.2143 3.78L14.6943 5.22H16.2943C16.4543 5.22 16.6143 5.3 16.6943 5.54C16.6943 5.7 16.6943 5.94 16.5343 6.02Z" fill="url(#paint0_linear_1_598)"/>
<defs>
<linearGradient id="paint0_linear_1_598" x1="-2.92283" y1="-8.74884" x2="21.1436" y2="18.4547" gradientUnits="userSpaceOnUse">
<stop offset="0.046875" stop-color="#D90D50"/>
<stop offset="1" stop-color="#FDA793"/>
</linearGradient>
</defs>
</svg>
