<svg width="17" height="18" viewBox="0 0 17 18" fill="none" xmlns="http://www.w3.org/2000/svg">
<path fill-rule="evenodd" clip-rule="evenodd" d="M-0.00549316 9C-0.00549316 4.30531 3.79982 0.5 8.49451 0.5C13.1884 0.5 16.9941 4.30608 16.9941 9C16.9941 13.6939 13.1892 17.5 8.49451 17.5C3.79982 17.5 -0.00549316 13.6947 -0.00549316 9ZM7.48771 4.5345L7.48094 4.26089C7.46812 3.71481 7.90009 3.26163 8.44693 3.24958C8.99304 3.23677 9.44616 3.6688 9.45896 4.21527L9.46611 4.52387C9.51843 4.54006 9.57036 4.55812 9.62079 4.57656C9.98663 4.71167 10.3208 4.91415 10.6054 5.16819C11.0122 5.53209 11.0472 6.15722 10.6829 6.56406C10.319 6.97091 9.69386 7.0059 9.28702 6.64159C9.19293 6.55804 9.07513 6.48804 8.93851 6.43761C8.80529 6.38793 8.6555 6.36046 8.49516 6.36046C8.17714 6.36046 7.89788 6.46809 7.70331 6.6416C7.34426 6.96183 7.34351 7.43906 7.70331 7.76008C7.89714 7.93396 8.17714 8.04122 8.49516 8.04122C9.30997 8.04122 10.057 8.34419 10.6054 8.8342C11.1823 9.34947 11.5398 10.0683 11.5398 10.8669C11.5398 11.6655 11.1827 12.3837 10.6054 12.8997C10.2934 13.1778 9.91816 13.3953 9.50266 13.5319L9.50756 13.7389C9.52037 14.285 9.08834 14.7382 8.54187 14.7509C7.99577 14.7638 7.54264 14.3317 7.52985 13.7853L7.5242 13.5519C7.37591 13.5049 7.23441 13.4458 7.09666 13.3762C6.72373 13.1872 6.4234 12.9396 6.09861 12.6332C5.70042 12.2585 5.68123 11.6318 6.05608 11.2332C6.43087 10.835 7.05753 10.8159 7.45609 11.1907C7.65781 11.3808 7.82867 11.5268 7.989 11.6077C8.11584 11.6717 8.27277 11.7067 8.49483 11.7067C8.81285 11.7067 9.09211 11.599 9.28668 11.4255C9.45189 11.2776 9.55426 11.0797 9.55426 10.8663C9.55426 10.6525 9.45189 10.4549 9.28668 10.307C9.09285 10.1331 8.81285 10.0259 8.49482 10.0259C7.67925 10.0259 6.93222 9.7229 6.38387 9.23289C5.14003 8.1223 5.13965 6.27812 6.38387 5.16715C6.69586 4.88902 7.07184 4.67112 7.48771 4.5345Z" fill="url(#paint0_linear_1_591)"/>
<defs>
<linearGradient id="paint0_linear_1_591" x1="-5.62289" y1="-5.11753" x2="19.0758" y2="14.9361" gradientUnits="userSpaceOnUse">
<stop stop-color="#EC2F46"/>
<stop offset="1" stop-color="#ECD92F"/>
</linearGradient>
</defs>
</svg>
