<svg width="17" height="17" viewBox="0 0 17 17" fill="none" xmlns="http://www.w3.org/2000/svg">
<path d="M10.4828 0.665745C10.073 0.255949 9.35895 0.255949 8.94912 0.665745L6.26465 3.35525H13.1699L10.4828 0.665745Z" fill="url(#paint0_linear_1_604)"/>
<path fill-rule="evenodd" clip-rule="evenodd" d="M15.9935 7.9823H13.1438C11.9334 7.9823 10.9504 8.96529 10.9504 10.1757C10.9504 10.7648 11.1778 11.3155 11.5908 11.7286C12.0039 12.1416 12.5546 12.3722 13.1438 12.3722H15.9935C16.1697 12.3722 16.3138 12.2281 16.3138 12.052V8.30244C16.3138 8.1264 16.1697 7.9823 15.9935 7.9823ZM13.2463 11.2324C12.6635 11.2324 12.1895 10.7585 12.1895 10.1757C12.1895 9.59614 12.6635 9.12222 13.2463 9.12222C13.829 9.12222 14.2996 9.59614 14.2996 10.1757C14.2997 10.7585 13.829 11.2324 13.2463 11.2324Z" fill="url(#paint1_linear_1_604)"/>
<path d="M1.77657 3.99567H15.212C15.8204 3.99567 16.3134 4.49194 16.3135 5.09694V7.40049C16.2129 7.36462 16.1061 7.34152 15.9934 7.34152H13.1437C11.5813 7.34152 10.31 8.6128 10.31 10.1754C10.31 10.9349 10.604 11.6473 11.1379 12.181C11.6739 12.717 12.3862 13.0122 13.1437 13.0122H15.9934C16.1062 13.0122 16.2129 12.9891 16.3135 12.9532V15.2569C16.3135 15.8653 15.8203 16.3584 15.212 16.3584H1.77657C1.17133 16.3584 0.675049 15.8652 0.675049 15.2569V5.09706C0.675049 4.49194 1.17145 3.99567 1.77657 3.99567Z" fill="url(#paint2_linear_1_604)"/>
<defs>
<linearGradient id="paint0_linear_1_604" x1="-3.15404" y1="0.358398" x2="12.7182" y2="21.8685" gradientUnits="userSpaceOnUse">
<stop offset="0.046875" stop-color="#005F91"/>
<stop offset="1" stop-color="#00C55A"/>
</linearGradient>
<linearGradient id="paint1_linear_1_604" x1="-3.15404" y1="0.358398" x2="12.7182" y2="21.8685" gradientUnits="userSpaceOnUse">
<stop offset="0.046875" stop-color="#005F91"/>
<stop offset="1" stop-color="#00C55A"/>
</linearGradient>
<linearGradient id="paint2_linear_1_604" x1="-3.15404" y1="0.358398" x2="12.7182" y2="21.8685" gradientUnits="userSpaceOnUse">
<stop offset="0.046875" stop-color="#005F91"/>
<stop offset="1" stop-color="#00C55A"/>
</linearGradient>
</defs>
</svg>
