<svg width="23" height="23" viewBox="0 0 23 23" fill="none" xmlns="http://www.w3.org/2000/svg">
<path fill-rule="evenodd" clip-rule="evenodd" d="M3.8187 0.153931C2.07081 0.153931 0.65387 1.57088 0.65387 3.31877V19.1429C0.65387 20.8908 2.07081 22.3078 3.8187 22.3078H19.6429C21.3908 22.3078 22.8077 20.8908 22.8077 19.1429V3.31877C22.8077 1.57088 21.3908 0.153931 19.6429 0.153931H3.8187ZM18.0605 6.4836C18.0605 5.60966 17.352 4.90118 16.478 4.90118C15.6041 4.90118 14.8956 5.60966 14.8956 6.4836V15.9781C14.8956 16.852 15.6041 17.5605 16.478 17.5605C17.352 17.5605 18.0605 16.852 18.0605 15.9781V6.4836ZM13.3132 9.64844C13.3132 8.77449 12.6047 8.06602 11.7308 8.06602C10.8568 8.06602 10.1484 8.77449 10.1484 9.64844V15.9781C10.1484 16.852 10.8568 17.5605 11.7308 17.5605C12.6047 17.5605 13.3132 16.852 13.3132 15.9781V9.64844ZM8.56596 14.3957C8.56596 13.5217 7.85748 12.8133 6.98354 12.8133C6.10959 12.8133 5.40112 13.5217 5.40112 14.3957V15.9781C5.40112 16.852 6.10959 17.5605 6.98354 17.5605C7.85748 17.5605 8.56596 16.852 8.56596 15.9781V14.3957Z" fill="url(#paint0_linear_1_179)"/>
<defs>
<linearGradient id="paint0_linear_1_179" x1="-6.66671" y1="-7.16664" x2="25.52" y2="18.9673" gradientUnits="userSpaceOnUse">
<stop stop-color="#4A2FEC"/>
<stop offset="1" stop-color="#2FECEC"/>
</linearGradient>
</defs>
</svg>
