<svg width="30" height="16" viewBox="0 0 30 16" fill="none" xmlns="http://www.w3.org/2000/svg">
<path d="M29.6133 4.90667C29.8266 4.8 29.9333 4.58667 29.9333 4.37333V0.533333C29.9333 0.213333 29.72 0 29.4 0H9.45332C9.55998 0.106667 9.66665 0.32 9.66665 0.533333V2.13333C9.66665 2.77333 9.23998 3.2 8.59998 3.2C7.95998 3.2 7.53332 2.77333 7.53332 2.13333V0.533333C7.53332 0.32 7.63998 0.106667 7.74665 0H0.599984C0.279984 0 0.0666504 0.213333 0.0666504 0.533333V4.48C0.0666504 4.69333 0.173317 4.90667 0.38665 5.01333C2.09332 5.86667 2.83998 7.89333 1.98665 9.6C1.66665 10.24 1.13332 10.7733 0.38665 11.2C0.173317 11.2 0.0666504 11.4133 0.0666504 11.6267V15.4667C0.0666504 15.7867 0.279984 16 0.599984 16H7.74665C7.63998 15.8933 7.53332 15.68 7.53332 15.4667V13.8667C7.53332 13.2267 7.95998 12.8 8.59998 12.8C9.23998 12.8 9.66665 13.2267 9.66665 13.8667V15.4667C9.66665 15.68 9.55998 15.8933 9.45332 16H29.4C29.72 16 29.9333 15.7867 29.9333 15.4667V11.6267C29.9333 11.4133 29.8266 11.2 29.6133 11.0933C27.9066 10.24 27.16 8.21333 28.0133 6.50667C28.3333 5.76 28.8666 5.22667 29.6133 4.90667ZM9.66665 9.92C9.66665 10.56 9.23998 10.9867 8.59998 10.9867C7.95998 10.9867 7.53332 10.56 7.53332 9.92V5.97333C7.53332 5.33333 7.95998 4.90667 8.59998 4.90667C9.23998 4.90667 9.66665 5.33333 9.66665 5.97333V9.92ZM21.72 7.36L20.0133 8.53333L20.6533 10.4533C20.76 10.6667 20.6533 10.88 20.44 11.0933C20.44 11.2 20.3333 11.2 20.2266 11.2C20.12 11.2 20.0133 11.2 19.9066 11.0933L18.2 9.92L16.4933 11.0933C16.28 11.2 16.0666 11.2 15.8533 11.0933C15.64 10.9867 15.64 10.6667 15.64 10.4533L16.28 8.53333L14.5733 7.36C14.36 7.25333 14.2533 6.93333 14.36 6.72C14.4666 6.50667 14.68 6.29333 14.8933 6.29333H16.92L17.56 4.37333C17.6666 4.05333 17.9866 3.94667 18.3066 4.05333C18.52 4.16 18.6266 4.26667 18.6266 4.37333L19.2666 6.29333H21.4C21.6133 6.29333 21.8266 6.4 21.9333 6.72C21.9333 6.93333 21.9333 7.25333 21.72 7.36Z" fill="white"/>
</svg>
