<svg width="21" height="23" viewBox="0 0 21 23" fill="none" xmlns="http://www.w3.org/2000/svg">
<path d="M7.57695 4.69242C6.81225 4.69242 6.19233 5.31233 6.19233 6.07703C6.19233 6.84173 6.81225 7.46165 7.57695 7.46165L15.3111 7.46165L13.521 9.25181C12.9802 9.79254 12.9802 10.6692 13.521 11.21C14.0617 11.7507 14.9384 11.7507 15.4791 11.21L19.6329 7.05611C19.8926 6.79644 20.0385 6.44426 20.0385 6.07704C20.0385 5.70981 19.8926 5.35763 19.6329 5.09797L15.4791 0.944119C14.9384 0.403393 14.0617 0.403393 13.521 0.944119C12.9802 1.48484 12.9802 2.36153 13.521 2.90226L15.3111 4.69242L7.57695 4.69242Z" fill="url(#paint0_linear_1_193)"/>
<path d="M13.1154 18.5386C13.8801 18.5386 14.5 17.9187 14.5 17.154C14.5 16.3893 13.8801 15.7693 13.1154 15.7693L5.38124 15.7693L7.1714 13.9792C7.71213 13.4385 7.71213 12.5618 7.1714 12.021C6.63068 11.4803 5.75399 11.4803 5.21326 12.021L1.05941 16.1749C0.799747 16.4346 0.65387 16.7867 0.65387 17.154C0.65387 17.5212 0.799747 17.8734 1.05941 18.133L5.21326 22.2869C5.75398 22.8276 6.63068 22.8276 7.1714 22.2869C7.71213 21.7461 7.71213 20.8695 7.1714 20.3287L5.38124 18.5386L13.1154 18.5386Z" fill="url(#paint1_linear_1_193)"/>
<defs>
<linearGradient id="paint0_linear_1_193" x1="-5.75163" y1="-6.782" x2="25.3037" y2="15.2814" gradientUnits="userSpaceOnUse">
<stop stop-color="#005F91"/>
<stop offset="1" stop-color="#00C55A"/>
</linearGradient>
<linearGradient id="paint1_linear_1_193" x1="-5.75163" y1="-6.782" x2="25.3037" y2="15.2814" gradientUnits="userSpaceOnUse">
<stop stop-color="#005F91"/>
<stop offset="1" stop-color="#00C55A"/>
</linearGradient>
</defs>
</svg>
