<svg width="12" height="14" viewBox="0 0 12 14" fill="none" xmlns="http://www.w3.org/2000/svg">
<path d="M2.99997 4.00002C2.99997 2.67454 4.07448 1.60002 5.39997 1.60002C6.56054 1.60002 7.52991 2.4244 7.75204 3.51985C7.80964 3.8039 8.06205 4.00617 8.35182 4.0005C8.36784 4.00018 8.38389 4.00002 8.39997 4.00002C9.72545 4.00002 10.8 5.07454 10.8 6.40002C10.8 7.56043 9.97583 8.52969 8.88061 8.75201C8.55586 8.81793 8.34604 9.13463 8.41196 9.45937C8.47788 9.78412 8.79458 9.99394 9.11933 9.92802C10.7628 9.59442 12 8.14237 12 6.40002C12 4.54795 10.6014 3.02254 8.80273 2.8223C8.31478 1.41249 6.97616 0.400024 5.39997 0.400024C3.41174 0.400024 1.79997 2.0118 1.79997 4.00002C1.79997 4.08271 1.80277 4.16481 1.80828 4.24623C0.744405 4.70724 -3.05176e-05 5.76617 -3.05176e-05 7.00002C-3.05176e-05 8.65688 1.34311 10 2.99997 10C3.33134 10 3.59997 9.7314 3.59997 9.40003C3.59997 9.06865 3.33134 8.80002 2.99997 8.80002C2.00586 8.80002 1.19997 7.99414 1.19997 7.00002C1.19997 6.1426 1.80006 5.42392 2.60372 5.24365C2.92695 5.17114 3.13026 4.8504 3.0579 4.52713C3.02006 4.35807 2.99997 4.18175 2.99997 4.00002Z" fill="#FDD900"/>
<path d="M6.59997 5.80002C6.59997 5.46865 6.33134 5.20002 5.99997 5.20002C5.6686 5.20002 5.39997 5.46865 5.39997 5.80002V11.5515L4.62423 10.7758C4.38992 10.5414 4.01002 10.5414 3.7757 10.7758C3.54139 11.0101 3.54139 11.39 3.7757 11.6243L5.5757 13.4243C5.81002 13.6586 6.18992 13.6586 6.42423 13.4243L8.22423 11.6243C8.45855 11.39 8.45855 11.0101 8.22423 10.7758C7.98992 10.5414 7.61002 10.5414 7.3757 10.7758L6.59997 11.5515V5.80002Z" fill="#FDD900"/>
</svg>
