<svg width="23" height="22" viewBox="0 0 23 22" fill="none" xmlns="http://www.w3.org/2000/svg">
<path d="M13.6857 0H7.58305C6.8106 0 6.05668 0.285167 5.4597 0.860907L1.70063 4.58161C1.12777 5.15447 0.791992 5.91701 0.791992 6.74333V16.5952C0.791992 18.2787 2.15963 19.6465 3.84308 19.6465H10.6439C10.1656 18.7188 9.90729 17.6665 9.90729 16.5571C9.90729 12.7789 12.9681 9.70873 16.7367 9.68936L16.7369 3.05131C16.7369 1.36787 15.3693 4.60914e-05 13.6858 4.60914e-05L13.6857 0ZM7.57337 13.3144H5.55521C5.02901 13.3144 4.59865 12.884 4.59865 12.3578C4.59865 11.8223 5.02901 11.4013 5.55521 11.4013H7.57337C8.10892 11.4013 8.52992 11.8221 8.52992 12.3578C8.52992 12.884 8.10892 13.3144 7.57337 13.3144ZM11.9732 9.02929H5.55511C5.02892 9.02929 4.59856 8.59893 4.59856 8.07273C4.59856 7.53718 5.02892 7.11618 5.55511 7.11618H11.9732C12.4994 7.11618 12.9297 7.537 12.9297 8.07273C12.9297 8.59893 12.4994 9.02929 11.9732 9.02929Z" fill="white"/>
<path d="M16.7755 11.1243C13.7721 11.1243 11.3429 13.5537 11.3429 16.5573C11.3428 19.5607 13.7724 22 16.7755 22C19.7786 22 22.208 19.561 22.208 16.5573C22.208 13.5539 19.7786 11.1243 16.7755 11.1243ZM18.698 18.4891C18.3174 18.87 17.7071 18.8467 17.3495 18.4891L16.0964 17.236C15.9146 17.0543 15.819 16.8152 15.819 16.5569V14.1084C15.819 13.5728 16.2493 13.1518 16.7755 13.1518C17.3017 13.1518 17.7321 13.5726 17.7321 14.1084V16.1649L18.6982 17.131C19.0711 17.5039 19.0711 18.1162 18.698 18.4891L18.698 18.4891Z" fill="white"/>
</svg>
