<svg width="19" height="22" viewBox="0 0 19 22" fill="none" xmlns="http://www.w3.org/2000/svg">
<path d="M14.6999 5.17282C14.6999 2.32238 12.3773 -4.82653e-05 9.47417 -4.82653e-05C6.62373 -4.82653e-05 4.3013 2.32245 4.3013 5.17282C4.3013 8.07612 6.62381 10.3985 9.47417 10.3985C12.3775 10.3985 14.6999 8.07598 14.6999 5.17282Z" fill="white"/>
<path d="M14.2245 12.4994H4.77563C2.13659 12.4994 0.0253296 14.6633 0.0253296 17.2497V21.0499C0.0253296 21.5778 0.447677 22 0.975463 22H18.0246C18.5526 22 18.9748 21.5776 18.9748 21.0499V17.2497C18.9748 14.6635 16.8637 12.4994 14.2245 12.4994Z" fill="white"/>
</svg>
