<svg width="23" height="19" viewBox="0 0 23 19" fill="none" xmlns="http://www.w3.org/2000/svg">
<path fill-rule="evenodd" clip-rule="evenodd" d="M1.41776 6.90782C0.78521 6.90782 0.269226 6.47729 0.269226 5.94905V1.49819C0.269226 0.970118 0.785036 0.539429 1.41776 0.539429H21.1715C21.8041 0.539429 22.3201 0.970301 22.3201 1.49819V5.94905C22.3201 6.47713 21.8041 6.90782 21.1715 6.90782H19.3595V4.17206H20.0634C20.311 4.17206 20.5115 3.9714 20.5115 3.72401C20.5115 3.47647 20.3108 3.27597 20.0634 3.27597L2.52619 3.2758C2.27864 3.2758 2.07815 3.47646 2.07815 3.72385C2.07815 3.97139 2.2788 4.17189 2.52619 4.17189H3.23012V6.90782L1.41776 6.90782ZM4.1262 4.17206V18.0914C4.1262 18.3383 4.32771 18.5394 4.57425 18.5394H18.0151C18.262 18.5394 18.4632 18.3379 18.4632 18.0914V4.17206H16.6107V14.0768C16.6107 14.3145 16.4257 14.5104 16.1883 14.5241C15.2518 14.5782 14.5019 15.3281 14.4478 16.2646C14.4341 16.5018 14.2383 16.687 14.0005 16.687H8.58838C8.35069 16.687 8.15478 16.502 8.14103 16.2646C8.087 15.3281 7.33707 14.5782 6.40053 14.5241C6.16334 14.5104 5.97815 14.3146 5.97815 14.0768V4.17206H4.1262ZM15.1322 7.9621C15.1322 5.84271 13.4143 4.12482 11.2949 4.12482C9.17556 4.12482 7.45767 5.84271 7.45767 7.9621C7.45767 10.0815 9.17591 11.7992 11.2949 11.7992C13.414 11.7992 15.1322 10.0811 15.1322 7.9621ZM13.4344 7.50453L13.3109 7.50759C13.2492 7.31984 13.1508 7.15011 13.0253 7.00926C12.5237 6.44757 11.6912 6.44774 11.1898 7.00926C10.9686 7.25681 10.8318 7.59406 10.8318 7.96224C10.8318 8.10581 10.7834 8.23222 10.7049 8.31972C10.6381 8.39431 10.5489 8.44052 10.4524 8.44052C10.3561 8.44052 10.2667 8.39431 10.2 8.31972C10.1216 8.23188 10.073 8.10581 10.073 7.96224C10.073 7.862 10.0888 7.79115 10.1177 7.73389C10.1542 7.66151 10.2202 7.58438 10.306 7.49331C10.4752 7.31339 10.4665 7.03048 10.2868 6.86128C10.1068 6.69206 9.82394 6.70073 9.65474 6.88048C9.51644 7.02711 9.40464 7.16269 9.31935 7.33105C9.28792 7.39323 9.26125 7.45712 9.24001 7.52406L9.13467 7.52661C8.88797 7.53238 8.69293 7.73695 8.69872 7.98348C8.70449 8.23018 8.90906 8.42522 9.15559 8.41943L9.24904 8.41722C9.31071 8.6048 9.40892 8.77419 9.53447 8.91503C9.76741 9.17566 10.0916 9.3369 10.4521 9.3369C10.8127 9.3369 11.1372 9.17549 11.3698 8.91503C11.591 8.66748 11.7278 8.33023 11.7278 7.9624C11.7278 7.81883 11.7762 7.69242 11.8547 7.60492C11.9996 7.44249 12.2151 7.44283 12.3596 7.60492C12.438 7.69276 12.4866 7.81883 12.4866 7.9624C12.4866 8.03478 12.4742 8.1024 12.4517 8.16254C12.429 8.22422 12.3974 8.2774 12.3596 8.31987C12.1952 8.50354 12.211 8.78575 12.3946 8.95003C12.5783 9.1145 12.8605 9.0987 13.0248 8.91503C13.1395 8.78659 13.2309 8.63571 13.2919 8.47055C13.3002 8.44779 13.3084 8.42434 13.3157 8.40072L13.455 8.39749C13.7017 8.39172 13.8967 8.18716 13.8909 7.94062C13.8855 7.69375 13.6809 7.49871 13.4344 7.5045L13.4344 7.50453Z" fill="url(#paint0_linear_1_186)"/>
<defs>
<linearGradient id="paint0_linear_1_186" x1="-7.01731" y1="-5.40854" x2="19.7035" y2="21.17" gradientUnits="userSpaceOnUse">
<stop stop-color="#D90D50"/>
<stop offset="1" stop-color="#FDA793"/>
</linearGradient>
</defs>
</svg>
