<svg width="23" height="23" viewBox="0 0 23 23" fill="none" xmlns="http://www.w3.org/2000/svg">
<path fill-rule="evenodd" clip-rule="evenodd" d="M0 11.075C0 4.9581 4.95809 2.67384e-07 11.075 0C17.1909 -2.67333e-07 22.1495 4.9591 22.1495 11.075C22.1495 17.1909 17.1919 22.15 11.075 22.15C4.9581 22.15 0 17.1919 0 11.075ZM9.7632 5.25671L9.75438 4.90022C9.73768 4.18871 10.3005 3.59824 11.013 3.58254C11.7246 3.56585 12.315 4.12876 12.3316 4.84077L12.3409 5.24287C12.4091 5.26396 12.4768 5.28749 12.5425 5.31152C13.0192 5.48756 13.4546 5.75138 13.8253 6.08238C14.3554 6.55652 14.401 7.37102 13.9263 7.90112C13.4522 8.43121 12.6377 8.4768 12.1076 8.00213C11.985 7.89327 11.8315 7.80206 11.6535 7.73635C11.4799 7.67163 11.2848 7.63583 11.0759 7.63583C10.6615 7.63583 10.2976 7.77608 10.0441 8.00214C9.5763 8.41939 9.57532 9.04118 10.0441 9.45946C10.2967 9.68601 10.6615 9.82577 11.0759 9.82577C12.1375 9.82577 13.1108 10.2205 13.8253 10.859C14.577 11.5303 15.0429 12.4669 15.0429 13.5075C15.0429 14.5481 14.5775 15.4837 13.8253 16.156C13.4188 16.5184 12.9299 16.8018 12.3886 16.9798L12.3949 17.2495C12.4116 17.9611 11.8487 18.5515 11.1367 18.5681C10.4252 18.5848 9.83478 18.0219 9.8181 17.3099L9.81075 17.0059C9.61754 16.9446 9.43317 16.8676 9.25369 16.7769C8.76778 16.5307 8.37647 16.2081 7.95328 15.8089C7.43447 15.3206 7.40947 14.5041 7.89787 13.9848C8.3862 13.466 9.20271 13.441 9.722 13.9294C9.98484 14.177 10.2075 14.3673 10.4164 14.4727C10.5816 14.556 10.7861 14.6016 11.0754 14.6016C11.4898 14.6016 11.8536 14.4614 12.1072 14.2353C12.3224 14.0426 12.4558 13.7847 12.4558 13.5066C12.4558 13.2281 12.3224 12.9707 12.1072 12.778C11.8546 12.5514 11.4898 12.4116 11.0754 12.4116C10.0128 12.4116 9.03943 12.0169 8.32496 11.3784C6.70432 9.93141 6.70381 7.52855 8.32496 6.08102C8.73147 5.71864 9.22135 5.43472 9.7632 5.25671Z" fill="url(#paint0_linear_1_172)"/>
<defs>
<linearGradient id="paint0_linear_1_172" x1="-7.31914" y1="-7.3193" x2="24.8619" y2="18.8094" gradientUnits="userSpaceOnUse">
<stop stop-color="#EC2F46"/>
<stop offset="1" stop-color="#ECD92F"/>
</linearGradient>
</defs>
</svg>
