<svg width="22" height="16" viewBox="0 0 22 16" fill="none" xmlns="http://www.w3.org/2000/svg">
<path d="M21.2712 7.76625C20.4626 5.67463 19.0588 3.8658 17.2334 2.56331C15.4079 1.26082 13.2408 0.521769 11 0.4375C8.75906 0.521769 6.59197 1.26082 4.76653 2.56331C2.94109 3.8658 1.53731 5.67463 0.728702 7.76625C0.674092 7.9173 0.674092 8.0827 0.728702 8.23375C1.53731 10.3254 2.94109 12.1342 4.76653 13.4367C6.59197 14.7392 8.75906 15.4782 11 15.5625C13.2408 15.4782 15.4079 14.7392 17.2334 13.4367C19.0588 12.1342 20.4626 10.3254 21.2712 8.23375C21.3258 8.0827 21.3258 7.9173 21.2712 7.76625ZM11 12.4688C10.1161 12.4688 9.25213 12.2067 8.51725 11.7156C7.78237 11.2246 7.20959 10.5267 6.87137 9.71012C6.53314 8.89356 6.44464 7.99504 6.61707 7.12819C6.7895 6.26134 7.2151 5.46508 7.84007 4.84012C8.46503 4.21515 9.26129 3.78954 10.1281 3.61712C10.995 3.44469 11.8935 3.53318 12.7101 3.87141C13.5266 4.20964 14.2245 4.78241 14.7156 5.5173C15.2066 6.25218 15.4687 7.11616 15.4687 8C15.4669 9.18463 14.9955 10.3202 14.1578 11.1579C13.3202 11.9955 12.1846 12.4669 11 12.4688Z" fill="white"/>
<path d="M21.2712 7.76625C20.4626 5.67463 19.0588 3.8658 17.2334 2.56331C15.4079 1.26082 13.2408 0.521769 11 0.4375C8.75906 0.521769 6.59197 1.26082 4.76653 2.56331C2.94109 3.8658 1.53731 5.67463 0.728702 7.76625C0.674092 7.9173 0.674092 8.0827 0.728702 8.23375C1.53731 10.3254 2.94109 12.1342 4.76653 13.4367C6.59197 14.7392 8.75906 15.4782 11 15.5625C13.2408 15.4782 15.4079 14.7392 17.2334 13.4367C19.0588 12.1342 20.4626 10.3254 21.2712 8.23375C21.3258 8.0827 21.3258 7.9173 21.2712 7.76625ZM11 12.4688C10.1161 12.4688 9.25213 12.2067 8.51725 11.7156C7.78237 11.2246 7.20959 10.5267 6.87137 9.71012C6.53314 8.89356 6.44464 7.99504 6.61707 7.12819C6.7895 6.26134 7.2151 5.46508 7.84007 4.84012C8.46503 4.21515 9.26129 3.78954 10.1281 3.61712C10.995 3.44469 11.8935 3.53318 12.7101 3.87141C13.5266 4.20964 14.2245 4.78241 14.7156 5.5173C15.2066 6.25218 15.4687 7.11616 15.4687 8C15.4669 9.18463 14.9955 10.3202 14.1578 11.1579C13.3202 11.9955 12.1846 12.4669 11 12.4688Z" fill="url(#paint0_linear_20_393)"/>
<defs>
<linearGradient id="paint0_linear_20_393" x1="-6.12744" y1="-4.56045" x2="16.21" y2="20.1708" gradientUnits="userSpaceOnUse">
<stop stop-color="#4A2FEC"/>
<stop offset="1" stop-color="#2FECEC"/>
</linearGradient>
</defs>
</svg>
