<svg width="22" height="22" viewBox="0 0 22 22" fill="none" xmlns="http://www.w3.org/2000/svg">
<path d="M11 13.75C12.5188 13.75 13.75 12.5188 13.75 11C13.75 9.48122 12.5188 8.25 11 8.25C9.48122 8.25 8.25 9.48122 8.25 11C8.25 12.5188 9.48122 13.75 11 13.75Z" fill="white"/>
<path d="M11 13.75C12.5188 13.75 13.75 12.5188 13.75 11C13.75 9.48122 12.5188 8.25 11 8.25C9.48122 8.25 8.25 9.48122 8.25 11C8.25 12.5188 9.48122 13.75 11 13.75Z" fill="url(#paint0_linear_20_391)"/>
<path d="M21.2712 10.7662C20.4626 8.67463 19.0588 6.8658 17.2334 5.56331C15.4079 4.26082 13.2408 3.52177 11 3.4375C8.75906 3.52177 6.59197 4.26082 4.76653 5.56331C2.94109 6.8658 1.53731 8.67463 0.728702 10.7662C0.674092 10.9173 0.674092 11.0827 0.728702 11.2338C1.53731 13.3254 2.94109 15.1342 4.76653 16.4367C6.59197 17.7392 8.75906 18.4782 11 18.5625C13.2408 18.4782 15.4079 17.7392 17.2334 16.4367C19.0588 15.1342 20.4626 13.3254 21.2712 11.2338C21.3258 11.0827 21.3258 10.9173 21.2712 10.7662ZM11 15.4688C10.1161 15.4688 9.25213 15.2067 8.51725 14.7156C7.78237 14.2246 7.20959 13.5267 6.87137 12.7101C6.53314 11.8936 6.44464 10.995 6.61707 10.1282C6.7895 9.26134 7.2151 8.46508 7.84007 7.84012C8.46503 7.21515 9.26129 6.78954 10.1281 6.61712C10.995 6.44469 11.8935 6.53318 12.7101 6.87141C13.5266 7.20964 14.2245 7.78241 14.7156 8.5173C15.2066 9.25218 15.4687 10.1162 15.4687 11C15.4669 12.1846 14.9955 13.3202 14.1578 14.1579C13.3202 14.9955 12.1846 15.4669 11 15.4688Z" fill="white"/>
<path d="M21.2712 10.7662C20.4626 8.67463 19.0588 6.8658 17.2334 5.56331C15.4079 4.26082 13.2408 3.52177 11 3.4375C8.75906 3.52177 6.59197 4.26082 4.76653 5.56331C2.94109 6.8658 1.53731 8.67463 0.728702 10.7662C0.674092 10.9173 0.674092 11.0827 0.728702 11.2338C1.53731 13.3254 2.94109 15.1342 4.76653 16.4367C6.59197 17.7392 8.75906 18.4782 11 18.5625C13.2408 18.4782 15.4079 17.7392 17.2334 16.4367C19.0588 15.1342 20.4626 13.3254 21.2712 11.2338C21.3258 11.0827 21.3258 10.9173 21.2712 10.7662ZM11 15.4688C10.1161 15.4688 9.25213 15.2067 8.51725 14.7156C7.78237 14.2246 7.20959 13.5267 6.87137 12.7101C6.53314 11.8936 6.44464 10.995 6.61707 10.1282C6.7895 9.26134 7.2151 8.46508 7.84007 7.84012C8.46503 7.21515 9.26129 6.78954 10.1281 6.61712C10.995 6.44469 11.8935 6.53318 12.7101 6.87141C13.5266 7.20964 14.2245 7.78241 14.7156 8.5173C15.2066 9.25218 15.4687 10.1162 15.4687 11C15.4669 12.1846 14.9955 13.3202 14.1578 14.1579C13.3202 14.9955 12.1846 15.4669 11 15.4688Z" fill="url(#paint1_linear_20_391)"/>
<defs>
<linearGradient id="paint0_linear_20_391" x1="6.43257" y1="6.43257" x2="14.4234" y2="12.9207" gradientUnits="userSpaceOnUse">
<stop stop-color="#4A2FEC"/>
<stop offset="1" stop-color="#2FECEC"/>
</linearGradient>
<linearGradient id="paint1_linear_20_391" x1="-6.12744" y1="-1.56045" x2="16.21" y2="23.1708" gradientUnits="userSpaceOnUse">
<stop stop-color="#4A2FEC"/>
<stop offset="1" stop-color="#2FECEC"/>
</linearGradient>
</defs>
</svg>
